<?xml version="1.0" encoding="UTF-8" standalone="no"?><!-- Generator: Gravit.io -->
<svg xmlns="http://www.w3.org/2000/svg" xmlns:xlink="http://www.w3.org/1999/xlink" style="isolation:isolate" viewBox="0 0 59 78" width="59pt" height="78pt">
    <defs>
        <clipPath id="_clipPath_kaU13jcHKCEav1ubDrvBaX4qUjq1Mkvh">
            <rect width="59" height="78"/>
        </clipPath>
    </defs>
    <g clip-path="url(#_clipPath_kaU13jcHKCEav1ubDrvBaX4qUjq1Mkvh)">
        <clipPath id="_clipPath_sy7EESMBDao5D7hOKYLq6cormGinTPmd">
            <rect x="0" y="0" width="59" height="78" transform="matrix(1,0,0,1,0,0)" fill="rgb(255,255,255)"/>
        </clipPath>
        <g clip-path="url(#_clipPath_sy7EESMBDao5D7hOKYLq6cormGinTPmd)">
            <g>
                <g>
                    <path d=" M 27.602 0 L 59 0 L 57.539 15.717 L 26.141 15.717 L 24.973 28.815 L 45.856 28.815 L 44.396 44.532 L 23.658 44.532 L 22.49 57.63 L 21.03 73.348 L 21.03 73.348 L 19.552 78 L 17.153 73.348 L 14.049 78 L 10.943 73.348 L 8.028 78 L 5.14 73.348 L 1.453 78 L 0 73.348 L 5.112 15.717 L 6.426 0 L 6.426 0 L 27.602 0 L 27.602 0 Z "
                          fill="rgb(124,81,0)"/>
                    <g style="opacity:0.33;">
                        <g opacity="0.33">
                            <linearGradient id="_lgradient_6" x1="0.5" y1="2.525208709358573e-7" x2="0.49999999999999983" y2="0.9999829007483878" gradientTransform="matrix(26.141,0,0,57.631,0,15.717)" gradientUnits="userSpaceOnUse">
                                <stop offset="6.140000000000001%" stop-opacity="0.8" style="stop-color:rgb(0,0,0)"/>
                                <stop offset="21.25%" stop-opacity="0" style="stop-color:rgb(0,0,0)"/>
                            </linearGradient>
                            <path d=" M 5.112 15.717 L 26.141 15.717 L 21.03 73.348 L 19.305 73.348 L 17.135 73.348 L 13.977 73.348 L 11.102 73.348 L 8.086 73.348 L 4.981 73.348 L 2.018 73.348 L 0 73.348 L 5.112 15.717 Z " fill="url(#_lgradient_6)"/>
                        </g>
                    </g>
                </g>
            </g>
        </g>
    </g>
</svg>